<svg width="21" height="18" viewBox="0 0 21 18" fill="none" xmlns="http://www.w3.org/2000/svg">
<path id="Vector" d="M11.7202 3.23874C11.3196 3.19505 10.9126 3.17001 10.5 3.16378C8.69707 3.17184 6.8281 3.61406 5.05903 4.46142C3.74551 5.11649 2.466 6.04128 1.3548 7.18203C0.809061 7.76436 0.112543 8.60754 0 9.50715C0.0133 10.2864 0.842678 11.2483 1.3548 11.8323C2.3968 12.9282 3.643 13.8266 5.05903 14.5529C5.10715 14.5765 5.15545 14.5997 5.20386 14.6227L3.8901 16.9362L5.67518 18L15.325 1.05892L13.6067 0L11.7202 3.23874ZM15.7949 4.39421L14.4836 6.68571C15.0869 7.47595 15.445 8.45045 15.445 9.50715C15.445 12.141 13.2308 14.2763 10.4987 14.2763C10.3806 14.2763 10.2661 14.2635 10.1501 14.2556L9.28234 15.7704C9.68253 15.8136 10.0872 15.8451 10.5 15.8505C12.3046 15.8424 14.1726 15.395 15.9397 14.5529C17.2532 13.8978 18.534 12.9731 19.6452 11.8323C20.191 11.25 20.8874 10.4068 21 9.50715C20.9867 8.72787 20.1573 7.766 19.6452 7.18201C18.6032 6.08607 17.3557 5.18774 15.9397 4.46139C15.8919 4.43802 15.843 4.417 15.7949 4.39421ZM10.4987 4.73801C10.6185 4.73801 10.7374 4.74284 10.8551 4.75093L9.83863 6.52546C8.41213 6.81708 7.3418 8.04093 7.3418 9.50588C7.3418 9.87387 7.40902 10.2262 7.53278 10.5527C7.53292 10.5531 7.53264 10.5537 7.53278 10.5541L6.51379 12.3338C5.90914 11.5428 5.55247 10.5651 5.55247 9.50713C5.55249 6.87332 7.76665 4.73799 10.4987 4.73801ZM13.4557 8.47965L11.1652 12.4811C12.5841 12.184 13.6467 10.9657 13.6467 9.50588C13.6467 9.14459 13.5752 8.8011 13.4557 8.47965Z" fill="#707070" fill-opacity="0.8"/>
</svg>
